<?xml version="1.0" encoding="iso-8859-1"?>
<!-- Uploaded to: SVG Repo, www.svgrepo.com, Generator: SVG Repo Mixer Tools -->
<!DOCTYPE svg PUBLIC "-//W3C//DTD SVG 1.1//EN" "http://www.w3.org/Graphics/SVG/1.1/DTD/svg11.dtd">
<svg fill="#000000" height="800px" width="800px" version="1.1" id="Capa_1" xmlns="http://www.w3.org/2000/svg" xmlns:xlink="http://www.w3.org/1999/xlink" 
	 viewBox="0 0 497.695 497.695" xml:space="preserve">
<g>
	<path d="M493.813,252.193l-39.202-56.466c-8.545-72.042-47.717-128.116-96.677-137.067c2.331,7.018,2.604,14.681,0.584,21.777
		c-1.652,5.853-4.632,11.104-8.679,15.392c10.391,11.776,12.512,29.419,4.047,43.598l-14.793,24.724
		c-6.668,11.135-18.869,18.055-31.836,18.055c-2.879,0-5.749-0.34-8.514-0.996c-1.897,5.625-5.102,10.788-9.389,14.9
		c-6.961,6.718-16.104,10.423-26.301,10.423c0,0,0,0-0.016,0l-28.813-0.429c-0.518-0.008-0.986-0.112-1.486-0.145
		c-0.26,3.381-0.374,6.813-0.488,10.243c5.31,10.448,5.938,22.936,1.067,34.177c3.095,30.866,11.653,59.062,24.345,82.036
		l-48.215,45.935c-5.506,5.253-8.19,12.804-7.203,20.355c0.984,7.541,5.5,14.169,12.168,17.827l129.422,70.967
		c7.365,4.055,16.35,3.91,23.615-0.39c7.237-4.297,11.684-12.098,11.684-20.522v-81.545c31.938-15.644,57.479-52.124,69.617-98.723
		h27.209c8.091,0,15.507-4.499,19.26-11.653C498.959,267.494,498.439,258.835,493.813,252.193z"/>
	<path d="M204.283,221.602l-13.205-7.9c1.032-7.234,0.822-14.437,0.029-21.575l10.83-6.036c-1.068-2.049-2.006-4.16-2.686-6.401
		c-2.43,0.484-4.906,0.744-7.4,0.744c-3.299,0-6.604-0.444-10.132-1.4c-9.468-2.67-17.333-8.903-22.304-17.66l-13.92-25.078
		c-2.215-3.94-3.559-8.183-4.222-12.527c-0.245-0.104-0.489-0.244-0.729-0.349l0.226-15.813c0.143-8.27-6.443-15.027-14.713-15.175
		l-36.253-0.534c-0.085,0-0.165,0-0.245,0c-3.902,0-7.606,1.497-10.391,4.202c-2.835,2.743-4.501,6.538-4.546,10.488l-0.23,15.749
		c-6.684,2.662-13.125,5.892-18.984,10.229l-13.227-7.908c-2.395-1.433-5.03-2.111-7.635-2.111c-5.102,0-10.052,2.591-12.871,7.276
		L3.08,160.946c-4.242,7.08-1.928,16.266,5.144,20.498l13.211,7.9c-1.039,7.209-0.828,14.436-0.016,21.575l-13.744,7.663
		c-7.236,4.022-9.792,13.126-5.779,20.313l17.642,31.691c1.941,3.448,5.166,6.021,8.969,7.09c1.357,0.397,2.734,0.584,4.112,0.584
		c2.524,0,5.001-0.642,7.231-1.895l13.824-7.688c2.801,2.201,5.471,4.532,8.594,6.393c3.14,1.884,6.428,3.114,9.713,4.539
		l-0.244,15.82c-0.16,8.255,6.442,15.038,14.697,15.167l36.258,0.542c0.109,0,0.195,0,0.289,0c3.869,0,7.592-1.513,10.361-4.2
		c2.865-2.734,4.467-6.53,4.531-10.487l0.24-15.749c6.668-2.645,13.111-5.874,19.005-10.221l13.206,7.898
		c2.395,1.433,5.035,2.113,7.641,2.113c5.096,0,10.051-2.598,12.851-7.276l18.631-31.125
		C213.656,235.009,211.355,225.834,204.283,221.602z M153.426,229.727c-9.871,16.51-27.952,26.778-47.197,26.778h-0.016
		c-9.886,0-19.633-2.703-28.177-7.801c-26.013-15.571-34.526-49.392-18.956-75.408c9.857-16.502,27.955-26.748,47.213-26.748
		c9.893,0,19.619,2.702,28.164,7.8c12.597,7.536,21.51,19.529,25.104,33.766C163.138,202.347,160.972,217.132,153.426,229.727z"/>
	<path d="M125.818,168.786c-5.91-3.543-12.678-5.422-19.525-5.422c-13.594,0-25.832,6.944-32.789,18.565
		c-10.795,18.054-4.891,41.533,13.176,52.336c17.707,10.578,41.873,4.337,52.328-13.176c5.227-8.739,6.733-18.992,4.238-28.874
		C140.77,182.334,134.572,174.015,125.818,168.786z"/>
	<path d="M167.509,123.952l13.971,25.161c1.552,2.735,4.077,4.791,7.121,5.657c1.068,0.284,2.166,0.43,3.25,0.43
		c2.012,0,3.982-0.494,5.779-1.482l10.975-6.126c2.235,1.717,4.336,3.586,6.813,5.075c2.494,1.497,5.115,2.443,7.705,3.601
		l-0.194,12.569c-0.095,6.553,5.13,11.936,11.669,12.041l28.811,0.421c0.065,0,0.115,0,0.18,0c3.061,0,6.039-1.197,8.271-3.358
		c2.235-2.136,3.528-5.155,3.564-8.313l0.194-12.486c5.32-2.119,10.436-4.684,15.083-8.118l10.471,6.273
		c1.91,1.141,4.018,1.683,6.088,1.683c4.027,0,7.961-2.071,10.196-5.795l14.778-24.707c3.363-5.632,1.522-12.891-4.098-16.268
		l-10.486-6.271c0.844-5.697,0.694-11.434,0.029-17.134l10.91-6.068c2.756-1.522,4.777-4.063,5.635-7.104
		c0.859-3.019,0.47-6.273-1.037-9.016l-14.015-25.176c-2.186-3.871-6.218-6.071-10.376-6.071c-1.961,0-3.947,0.486-5.764,1.515
		l-10.971,6.108c-2.235-1.739-4.321-3.576-6.816-5.059c-2.477-1.487-5.131-2.492-7.706-3.625l0.194-12.552
		c0.1-6.563-5.131-11.936-11.653-12.073l-28.808-0.429c-0.049,0-0.114,0-0.164,0c-3.09,0-6.054,1.205-8.27,3.349
		c-2.251,2.211-3.564,5.173-3.608,8.327l-0.165,12.512c-5.324,2.096-10.455,4.679-15.117,8.093l-10.455-6.254
		c-1.912-1.143-4.014-1.691-6.1-1.691c-4.032,0-7.949,2.063-10.166,5.786l-14.777,24.715c-3.349,5.617-1.553,12.899,4.078,16.274
		l10.471,6.249c-0.809,5.729-0.645,11.451,0,17.139l-10.926,6.078C166.377,111.003,164.306,118.247,167.509,123.952z
		 M222.279,77.493c9.244-15.474,29.332-20.532,44.838-11.274c15.491,9.266,20.557,29.361,11.299,44.843
		c-9.293,15.521-29.381,20.557-44.867,11.289C218.057,113.092,212.992,93.014,222.279,77.493z"/>
</g>
</svg>