<svg xmlns="http://www.w3.org/2000/svg" xmlns:xlink="http://www.w3.org/1999/xlink" zoomAndPan="magnify" preserveAspectRatio="xMidYMid meet" version="1.0" viewBox="56.39 153.69 163.9 59.06"><defs><g/><clipPath id="906bfeb392"><path d="M 177.539062 171 L 203 171 L 203 196.441406 L 177.539062 196.441406 Z M 177.539062 171 " clip-rule="nonzero"/></clipPath><clipPath id="a7f7a4dc76"><path d="M 195 171 L 220.289062 171 L 220.289062 196.441406 L 195 196.441406 Z M 195 171 " clip-rule="nonzero"/></clipPath><clipPath id="ac2d0ed9d1"><path d="M 198 153.691406 L 200 153.691406 L 200 160 L 198 160 Z M 198 153.691406 " clip-rule="nonzero"/></clipPath><clipPath id="4286ff41f3"><rect x="0" width="91" y="0" height="13"/></clipPath></defs><g clip-path="url(#906bfeb392)"><path fill="#cba35c" d="M 190.167969 196.441406 C 186.804688 196.441406 183.644531 195.125 181.261719 192.730469 C 178.855469 190.308594 177.546875 187.089844 177.574219 183.664062 C 177.632812 176.746094 183.28125 171.113281 190.164062 171.113281 C 190.164062 171.113281 190.167969 171.113281 190.167969 171.113281 C 192.828125 171.113281 195.371094 171.9375 197.523438 173.496094 C 197.726562 173.640625 197.773438 173.929688 197.625 174.132812 C 197.480469 174.339844 197.195312 174.386719 196.988281 174.238281 C 194.996094 172.792969 192.636719 172.03125 190.171875 172.03125 C 190.167969 172.03125 190.167969 172.03125 190.164062 172.03125 C 183.78125 172.03125 178.542969 177.253906 178.488281 183.671875 C 178.460938 186.851562 179.675781 189.835938 181.910156 192.082031 C 184.144531 194.328125 187.109375 195.550781 190.273438 195.519531 C 196.5625 195.46875 201.757812 190.277344 201.851562 183.957031 C 201.894531 180.949219 200.808594 178.070312 198.792969 175.851562 C 198.621094 175.664062 198.636719 175.375 198.820312 175.203125 C 199.007812 175.03125 199.296875 175.046875 199.464844 175.234375 C 201.640625 177.621094 202.808594 180.726562 202.761719 183.96875 C 202.710938 187.277344 201.390625 190.394531 199.035156 192.746094 C 196.679688 195.097656 193.570312 196.410156 190.277344 196.4375 C 190.242188 196.441406 190.207031 196.441406 190.167969 196.441406 Z M 190.167969 196.441406 " fill-opacity="1" fill-rule="nonzero"/></g><g clip-path="url(#a7f7a4dc76)"><path fill="#cba35c" d="M 207.695312 196.441406 C 205.035156 196.441406 202.492188 195.617188 200.34375 194.058594 C 200.136719 193.910156 200.089844 193.625 200.238281 193.417969 C 200.386719 193.210938 200.671875 193.164062 200.875 193.3125 C 202.871094 194.757812 205.226562 195.523438 207.695312 195.523438 C 214.136719 195.523438 219.375 190.253906 219.375 183.777344 C 219.375 177.300781 214.136719 172.03125 207.695312 172.03125 C 201.253906 172.03125 196.015625 177.300781 196.015625 183.777344 C 196.015625 186.714844 197.101562 189.53125 199.074219 191.699219 C 199.242188 191.886719 199.230469 192.175781 199.042969 192.347656 C 198.859375 192.519531 198.570312 192.503906 198.398438 192.320312 C 196.273438 189.980469 195.101562 186.945312 195.101562 183.777344 C 195.101562 176.792969 200.75 171.113281 207.695312 171.113281 C 214.640625 171.113281 220.289062 176.792969 220.289062 183.777344 C 220.289062 190.757812 214.640625 196.441406 207.695312 196.441406 Z M 207.695312 196.441406 " fill-opacity="1" fill-rule="nonzero"/></g><path fill="#cba35c" d="M 199.128906 171.765625 C 199.089844 171.765625 199.050781 171.761719 199.015625 171.75 C 198.847656 171.792969 198.660156 171.742188 198.546875 171.597656 L 194.535156 166.679688 L 196.3125 164.257812 L 201.714844 164.257812 L 203.496094 166.679688 L 199.484375 171.597656 C 199.390625 171.707031 199.261719 171.765625 199.128906 171.765625 Z M 195.691406 166.648438 L 199.015625 170.722656 L 202.339844 166.648438 L 201.253906 165.175781 L 196.773438 165.175781 Z M 195.691406 166.648438 " fill-opacity="1" fill-rule="nonzero"/><g clip-path="url(#ac2d0ed9d1)"><path fill="#cba35c" d="M 199.011719 159.746094 C 198.761719 159.746094 198.558594 159.539062 198.558594 159.285156 L 198.558594 154.152344 C 198.558594 153.898438 198.761719 153.691406 199.011719 153.691406 C 199.265625 153.691406 199.46875 153.898438 199.46875 154.152344 L 199.46875 159.285156 C 199.46875 159.539062 199.265625 159.746094 199.011719 159.746094 Z M 199.011719 159.746094 " fill-opacity="1" fill-rule="nonzero"/></g><path fill="#cba35c" d="M 206.9375 158.503906 C 206.832031 158.503906 206.726562 158.46875 206.640625 158.394531 C 206.449219 158.226562 206.429688 157.9375 206.59375 157.746094 L 207.160156 157.089844 C 207.328125 156.898438 207.613281 156.875 207.804688 157.042969 C 207.996094 157.207031 208.015625 157.496094 207.851562 157.691406 L 207.285156 158.347656 C 207.191406 158.453125 207.066406 158.503906 206.9375 158.503906 Z M 206.9375 158.503906 " fill-opacity="1" fill-rule="nonzero"/><path fill="#cba35c" d="M 204.15625 161.726562 C 204.050781 161.726562 203.945312 161.691406 203.859375 161.617188 C 203.667969 161.449219 203.648438 161.160156 203.8125 160.96875 L 205.144531 159.425781 C 205.308594 159.234375 205.597656 159.214844 205.789062 159.378906 C 205.976562 159.546875 206 159.835938 205.832031 160.027344 L 204.503906 161.570312 C 204.414062 161.675781 204.285156 161.726562 204.15625 161.726562 Z M 204.15625 161.726562 " fill-opacity="1" fill-rule="nonzero"/><path fill="#cba35c" d="M 206.753906 166.613281 C 206.527344 166.613281 206.335938 166.449219 206.300781 166.21875 C 206.265625 165.96875 206.4375 165.738281 206.6875 165.703125 L 211.746094 164.976562 C 211.996094 164.941406 212.226562 165.113281 212.261719 165.367188 C 212.296875 165.617188 212.125 165.847656 211.875 165.886719 L 206.816406 166.609375 C 206.796875 166.613281 206.773438 166.613281 206.753906 166.613281 Z M 206.753906 166.613281 " fill-opacity="1" fill-rule="nonzero"/><path fill="#cba35c" d="M 191.570312 158.503906 C 191.445312 158.503906 191.316406 158.453125 191.226562 158.347656 L 190.660156 157.691406 C 190.492188 157.496094 190.515625 157.207031 190.707031 157.042969 C 190.894531 156.875 191.183594 156.898438 191.347656 157.089844 L 191.914062 157.746094 C 192.082031 157.9375 192.0625 158.226562 191.871094 158.394531 C 191.785156 158.46875 191.675781 158.503906 191.570312 158.503906 Z M 191.570312 158.503906 " fill-opacity="1" fill-rule="nonzero"/><path fill="#cba35c" d="M 194.351562 161.726562 C 194.222656 161.726562 194.097656 161.675781 194.007812 161.570312 L 192.675781 160.027344 C 192.511719 159.835938 192.53125 159.546875 192.722656 159.378906 C 192.914062 159.214844 193.203125 159.234375 193.367188 159.425781 L 194.695312 160.96875 C 194.863281 161.160156 194.839844 161.449219 194.652344 161.617188 C 194.5625 161.691406 194.457031 161.726562 194.351562 161.726562 Z M 194.351562 161.726562 " fill-opacity="1" fill-rule="nonzero"/><path fill="#cba35c" d="M 191.757812 166.613281 C 191.734375 166.613281 191.714844 166.613281 191.691406 166.609375 L 186.636719 165.886719 C 186.386719 165.847656 186.210938 165.617188 186.246094 165.367188 C 186.28125 165.113281 186.511719 164.941406 186.761719 164.976562 L 191.820312 165.703125 C 192.070312 165.738281 192.242188 165.96875 192.207031 166.21875 C 192.175781 166.449219 191.980469 166.613281 191.757812 166.613281 Z M 191.757812 166.613281 " fill-opacity="1" fill-rule="nonzero"/><g fill="#000000" fill-opacity="1"><g transform="translate(56.638282, 194.672169)"><g><path d="M 20.359375 -0.28125 L 20.578125 -0.28125 L 20.578125 0 L 14.1875 0 L 14.1875 -0.28125 L 14.4375 -0.28125 C 14.832031 -0.28125 15.128906 -0.40625 15.328125 -0.65625 C 15.535156 -0.914062 15.640625 -1.160156 15.640625 -1.390625 C 15.640625 -1.617188 15.597656 -1.847656 15.515625 -2.078125 L 13.703125 -6.90625 L 6.03125 -6.90625 L 4.125 -2.046875 C 4.050781 -1.816406 4.015625 -1.59375 4.015625 -1.375 C 4.015625 -1.15625 4.113281 -0.914062 4.3125 -0.65625 C 4.507812 -0.40625 4.804688 -0.28125 5.203125 -0.28125 L 5.453125 -0.28125 L 5.453125 0 L -0.25 0 L -0.25 -0.28125 L 0 -0.28125 C 0.476562 -0.28125 0.941406 -0.429688 1.390625 -0.734375 C 1.847656 -1.035156 2.21875 -1.484375 2.5 -2.078125 L 8.921875 -17.359375 C 9.628906 -18.898438 9.984375 -19.878906 9.984375 -20.296875 L 10.234375 -20.296875 L 17.859375 -2.078125 C 18.117188 -1.484375 18.472656 -1.035156 18.921875 -0.734375 C 19.378906 -0.429688 19.859375 -0.28125 20.359375 -0.28125 Z M 6.375 -7.765625 L 13.359375 -7.765625 L 9.953125 -16.875 Z M 6.375 -7.765625 "/></g></g></g><g fill="#000000" fill-opacity="1"><g transform="translate(76.863493, 194.672169)"><g><path d="M 8.640625 0 L 1.703125 0 L 1.734375 -0.28125 L 2.078125 -0.28125 C 2.566406 -0.28125 2.984375 -0.453125 3.328125 -0.796875 C 3.679688 -1.140625 3.867188 -1.554688 3.890625 -2.046875 L 3.890625 -17.84375 C 3.890625 -18.34375 3.707031 -18.757812 3.34375 -19.09375 C 2.988281 -19.4375 2.566406 -19.609375 2.078125 -19.609375 L 1.734375 -19.609375 L 1.703125 -19.890625 L 7.359375 -19.890625 C 9.304688 -19.890625 10.820312 -19.457031 11.90625 -18.59375 C 12.988281 -17.738281 13.53125 -16.59375 13.53125 -15.15625 C 13.53125 -14.007812 13.222656 -13.0625 12.609375 -12.3125 C 12.003906 -11.570312 11.269531 -11.078125 10.40625 -10.828125 C 11.894531 -10.597656 13.078125 -9.976562 13.953125 -8.96875 C 14.828125 -7.96875 15.265625 -6.707031 15.265625 -5.1875 C 15.265625 -3.664062 14.679688 -2.421875 13.515625 -1.453125 C 12.347656 -0.484375 10.722656 0 8.640625 0 Z M 5.734375 -1.015625 L 8.53125 -1.015625 C 8.550781 -1.015625 8.566406 -1.015625 8.578125 -1.015625 C 10.023438 -1.015625 11.144531 -1.40625 11.9375 -2.1875 C 12.726562 -2.976562 13.125 -4.097656 13.125 -5.546875 C 13.125 -6.359375 12.988281 -7.070312 12.71875 -7.6875 C 12.445312 -8.300781 12.101562 -8.789062 11.6875 -9.15625 C 10.582031 -10.0625 8.929688 -10.515625 6.734375 -10.515625 C 6.734375 -10.515625 6.722656 -10.515625 6.703125 -10.515625 L 6.703125 -10.765625 C 6.722656 -10.765625 6.8125 -10.765625 6.96875 -10.765625 C 7.132812 -10.765625 7.367188 -10.785156 7.671875 -10.828125 C 7.972656 -10.867188 8.3125 -10.9375 8.6875 -11.03125 C 9.070312 -11.125 9.414062 -11.273438 9.71875 -11.484375 C 10.019531 -11.691406 10.304688 -11.9375 10.578125 -12.21875 C 11.117188 -12.84375 11.390625 -13.773438 11.390625 -15.015625 C 11.390625 -16.253906 11.035156 -17.222656 10.328125 -17.921875 C 9.617188 -18.628906 8.59375 -18.984375 7.25 -18.984375 L 5.734375 -18.984375 Z M 5.734375 -1.015625 "/></g></g></g><g fill="#000000" fill-opacity="1"><g transform="translate(93.22535, 194.672169)"><g><path d="M 22.109375 -19.609375 C 21.640625 -19.609375 21.234375 -19.441406 20.890625 -19.109375 C 20.546875 -18.773438 20.363281 -18.375 20.34375 -17.90625 L 20.34375 -3.234375 C 20.34375 -2.140625 20.410156 -1.097656 20.546875 -0.109375 L 20.609375 0.390625 L 20.34375 0.390625 L 4.859375 -16.140625 L 4.859375 -1.984375 C 4.878906 -1.328125 5.171875 -0.835938 5.734375 -0.515625 C 6.003906 -0.359375 6.289062 -0.28125 6.59375 -0.28125 L 7.140625 -0.28125 L 7.140625 0 L 1.28125 0 L 1.28125 -0.28125 L 1.8125 -0.28125 C 2.289062 -0.28125 2.695312 -0.445312 3.03125 -0.78125 C 3.375 -1.113281 3.546875 -1.523438 3.546875 -2.015625 L 3.546875 -16.765625 C 3.546875 -17.921875 3.484375 -18.953125 3.359375 -19.859375 L 3.296875 -20.328125 L 3.578125 -20.328125 L 19.078125 -3.78125 L 19.078125 -17.875 C 19.054688 -18.363281 18.875 -18.773438 18.53125 -19.109375 C 18.1875 -19.441406 17.78125 -19.609375 17.3125 -19.609375 L 16.765625 -19.609375 L 16.765625 -19.890625 L 22.625 -19.890625 L 22.625 -19.609375 Z M 22.109375 -19.609375 "/></g></g></g><g fill="#000000" fill-opacity="1"><g transform="translate(116.688712, 194.672169)"><g><path d="M 20.359375 -0.28125 L 20.578125 -0.28125 L 20.578125 0 L 14.1875 0 L 14.1875 -0.28125 L 14.4375 -0.28125 C 14.832031 -0.28125 15.128906 -0.40625 15.328125 -0.65625 C 15.535156 -0.914062 15.640625 -1.160156 15.640625 -1.390625 C 15.640625 -1.617188 15.597656 -1.847656 15.515625 -2.078125 L 13.703125 -6.90625 L 6.03125 -6.90625 L 4.125 -2.046875 C 4.050781 -1.816406 4.015625 -1.59375 4.015625 -1.375 C 4.015625 -1.15625 4.113281 -0.914062 4.3125 -0.65625 C 4.507812 -0.40625 4.804688 -0.28125 5.203125 -0.28125 L 5.453125 -0.28125 L 5.453125 0 L -0.25 0 L -0.25 -0.28125 L 0 -0.28125 C 0.476562 -0.28125 0.941406 -0.429688 1.390625 -0.734375 C 1.847656 -1.035156 2.21875 -1.484375 2.5 -2.078125 L 8.921875 -17.359375 C 9.628906 -18.898438 9.984375 -19.878906 9.984375 -20.296875 L 10.234375 -20.296875 L 17.859375 -2.078125 C 18.117188 -1.484375 18.472656 -1.035156 18.921875 -0.734375 C 19.378906 -0.429688 19.859375 -0.28125 20.359375 -0.28125 Z M 6.375 -7.765625 L 13.359375 -7.765625 L 9.953125 -16.875 Z M 6.375 -7.765625 "/></g></g></g><g fill="#000000" fill-opacity="1"><g transform="translate(136.913923, 194.672169)"><g><path d="M 1.734375 -1.171875 C 1.679688 -1.429688 1.65625 -1.941406 1.65625 -2.703125 C 1.65625 -3.460938 1.796875 -4.265625 2.078125 -5.109375 L 2.328125 -5.109375 C 2.304688 -4.898438 2.296875 -4.691406 2.296875 -4.484375 C 2.296875 -3.328125 2.644531 -2.363281 3.34375 -1.59375 C 4.050781 -0.832031 4.984375 -0.453125 6.140625 -0.453125 C 7.335938 -0.453125 8.316406 -0.8125 9.078125 -1.53125 C 9.847656 -2.25 10.234375 -3.15625 10.234375 -4.25 C 10.234375 -5.34375 9.863281 -6.226562 9.125 -6.90625 L 3.671875 -11.96875 C 2.640625 -12.914062 2.125 -14.0625 2.125 -15.40625 C 2.125 -16.75 2.570312 -17.898438 3.46875 -18.859375 C 4.375 -19.816406 5.597656 -20.296875 7.140625 -20.296875 C 7.859375 -20.296875 8.671875 -20.203125 9.578125 -20.015625 L 10.6875 -20.015625 L 10.6875 -16.515625 L 10.4375 -16.515625 C 10.4375 -17.398438 10.125 -18.109375 9.5 -18.640625 C 8.882812 -19.171875 8.09375 -19.4375 7.125 -19.4375 C 6.164062 -19.4375 5.359375 -19.113281 4.703125 -18.46875 C 4.046875 -17.832031 3.71875 -17.03125 3.71875 -16.0625 C 3.71875 -15.09375 4.097656 -14.257812 4.859375 -13.5625 L 10.453125 -8.390625 C 11.398438 -7.515625 11.875 -6.316406 11.875 -4.796875 C 11.875 -3.285156 11.390625 -2.039062 10.421875 -1.0625 C 9.460938 -0.09375 8.175781 0.390625 6.5625 0.390625 C 5.726562 0.390625 4.84375 0.257812 3.90625 0 C 2.96875 -0.25 2.242188 -0.640625 1.734375 -1.171875 Z M 1.734375 -1.171875 "/></g></g></g><g fill="#000000" fill-opacity="1"><g transform="translate(150.406872, 194.672169)"><g><path d="M 15.546875 -0.28125 C 16.035156 -0.28125 16.457031 -0.453125 16.8125 -0.796875 C 17.164062 -1.140625 17.347656 -1.554688 17.359375 -2.046875 L 17.359375 -9.40625 L 5.734375 -9.40625 L 5.734375 -2.078125 C 5.734375 -1.578125 5.914062 -1.148438 6.28125 -0.796875 C 6.644531 -0.453125 7.070312 -0.28125 7.5625 -0.28125 L 7.9375 -0.28125 L 7.9375 0 L 1.703125 0 L 1.703125 -0.28125 L 2.078125 -0.28125 C 2.566406 -0.28125 2.984375 -0.453125 3.328125 -0.796875 C 3.679688 -1.148438 3.867188 -1.578125 3.890625 -2.078125 L 3.890625 -17.84375 C 3.867188 -18.34375 3.679688 -18.757812 3.328125 -19.09375 C 2.984375 -19.4375 2.566406 -19.609375 2.078125 -19.609375 L 1.703125 -19.609375 L 1.703125 -19.890625 L 7.9375 -19.890625 L 7.9375 -19.609375 L 7.5625 -19.609375 C 7.070312 -19.609375 6.648438 -19.4375 6.296875 -19.09375 C 5.941406 -18.757812 5.753906 -18.34375 5.734375 -17.84375 L 5.734375 -10.265625 L 17.359375 -10.265625 L 17.359375 -17.84375 C 17.347656 -18.53125 17.046875 -19.046875 16.453125 -19.390625 C 16.171875 -19.535156 15.867188 -19.609375 15.546875 -19.609375 L 15.171875 -19.609375 L 15.171875 -19.890625 L 21.40625 -19.890625 L 21.40625 -19.609375 L 21.03125 -19.609375 C 20.539062 -19.609375 20.117188 -19.429688 19.765625 -19.078125 C 19.410156 -18.734375 19.226562 -18.316406 19.21875 -17.828125 L 19.21875 -2.078125 C 19.226562 -1.578125 19.410156 -1.148438 19.765625 -0.796875 C 20.117188 -0.453125 20.539062 -0.28125 21.03125 -0.28125 L 21.40625 -0.28125 L 21.40625 0 L 15.171875 0 L 15.171875 -0.28125 Z M 15.546875 -0.28125 "/></g></g></g><g transform="matrix(1, 0, 0, 1, 125, 202)"><g clip-path="url(#4286ff41f3)"><g fill="#000000" fill-opacity="1"><g transform="translate(1.329259, 8.998829)"><g><path d="M 2.328125 -6.0625 C 2.117188 -6.0625 1.960938 -5.96875 1.859375 -5.78125 C 1.804688 -5.695312 1.78125 -5.601562 1.78125 -5.5 L 1.78125 0 C 1.78125 0.488281 1.625 0.898438 1.3125 1.234375 C 1.007812 1.578125 0.628906 1.75 0.171875 1.75 L 0.171875 1.671875 C 0.460938 1.578125 0.707031 1.363281 0.90625 1.03125 C 1.101562 0.695312 1.203125 0.34375 1.203125 -0.03125 L 1.203125 -5.5 C 1.191406 -5.65625 1.132812 -5.785156 1.03125 -5.890625 C 0.925781 -6.003906 0.796875 -6.0625 0.640625 -6.0625 L 0.53125 -6.0625 L 0.53125 -6.140625 L 2.453125 -6.140625 L 2.453125 -6.0625 Z M 2.328125 -6.0625 "/></g></g></g><g fill="#000000" fill-opacity="1"><g transform="translate(5.805943, 8.998829)"><g><path d="M 0.640625 -0.09375 C 0.796875 -0.09375 0.925781 -0.144531 1.03125 -0.25 C 1.132812 -0.351562 1.191406 -0.484375 1.203125 -0.640625 L 1.203125 -5.5625 C 1.179688 -5.695312 1.117188 -5.8125 1.015625 -5.90625 C 0.910156 -6.007812 0.785156 -6.0625 0.640625 -6.0625 L 0.53125 -6.0625 L 0.53125 -6.140625 L 3.09375 -6.140625 C 3.28125 -6.140625 3.476562 -6.15625 3.6875 -6.1875 C 3.90625 -6.226562 4.054688 -6.269531 4.140625 -6.3125 L 4.140625 -5.203125 L 4.0625 -5.203125 L 4.0625 -5.359375 C 4.0625 -5.492188 4.007812 -5.609375 3.90625 -5.703125 C 3.8125 -5.804688 3.695312 -5.863281 3.5625 -5.875 L 1.78125 -5.875 L 1.78125 -3.15625 L 3.265625 -3.15625 C 3.378906 -3.164062 3.472656 -3.210938 3.546875 -3.296875 C 3.628906 -3.378906 3.671875 -3.476562 3.671875 -3.59375 L 3.671875 -3.71875 L 3.765625 -3.71875 L 3.765625 -2.328125 L 3.671875 -2.328125 L 3.671875 -2.46875 C 3.671875 -2.582031 3.628906 -2.679688 3.546875 -2.765625 C 3.472656 -2.847656 3.378906 -2.890625 3.265625 -2.890625 L 1.78125 -2.890625 L 1.78125 -0.265625 L 3.03125 -0.265625 C 3.457031 -0.265625 3.785156 -0.363281 4.015625 -0.5625 C 4.242188 -0.757812 4.4375 -1.046875 4.59375 -1.421875 L 4.6875 -1.421875 L 4.171875 0 L 0.53125 0 L 0.53125 -0.09375 Z M 0.640625 -0.09375 "/></g></g></g><g fill="#000000" fill-opacity="1"><g transform="translate(12.503412, 8.998829)"><g><path d="M 8.734375 -6.0625 L 8.65625 -6.0625 C 8.4375 -6.0625 8.242188 -5.984375 8.078125 -5.828125 C 7.984375 -5.742188 7.921875 -5.640625 7.890625 -5.515625 L 6.421875 -0.875 C 6.304688 -0.5 6.242188 -0.171875 6.234375 0.109375 L 6.15625 0.109375 L 4.359375 -4.921875 L 3.03125 -0.875 C 2.914062 -0.507812 2.851562 -0.179688 2.84375 0.109375 L 2.765625 0.109375 L 0.765625 -5.515625 C 0.703125 -5.691406 0.59375 -5.828125 0.4375 -5.921875 C 0.289062 -6.015625 0.144531 -6.0625 0 -6.0625 L -0.078125 -6.0625 L -0.078125 -6.140625 L 1.875 -6.140625 L 1.875 -6.0625 L 1.796875 -6.0625 C 1.671875 -6.0625 1.578125 -6.019531 1.515625 -5.9375 C 1.453125 -5.863281 1.421875 -5.789062 1.421875 -5.71875 C 1.421875 -5.644531 1.429688 -5.578125 1.453125 -5.515625 L 2.796875 -1.25 L 4.421875 -6.28125 L 4.5 -6.28125 L 6.234375 -1.421875 L 7.40625 -5.53125 C 7.425781 -5.59375 7.4375 -5.65625 7.4375 -5.71875 C 7.4375 -5.789062 7.40625 -5.863281 7.34375 -5.9375 C 7.289062 -6.019531 7.203125 -6.0625 7.078125 -6.0625 L 7 -6.0625 L 7 -6.140625 L 8.734375 -6.140625 Z M 8.734375 -6.0625 "/></g></g></g><g fill="#000000" fill-opacity="1"><g transform="translate(22.755914, 8.998829)"><g><path d="M 0.640625 -0.09375 C 0.796875 -0.09375 0.925781 -0.144531 1.03125 -0.25 C 1.132812 -0.351562 1.191406 -0.484375 1.203125 -0.640625 L 1.203125 -5.5625 C 1.179688 -5.695312 1.117188 -5.8125 1.015625 -5.90625 C 0.910156 -6.007812 0.785156 -6.0625 0.640625 -6.0625 L 0.53125 -6.0625 L 0.53125 -6.140625 L 3.09375 -6.140625 C 3.28125 -6.140625 3.476562 -6.15625 3.6875 -6.1875 C 3.90625 -6.226562 4.054688 -6.269531 4.140625 -6.3125 L 4.140625 -5.203125 L 4.0625 -5.203125 L 4.0625 -5.359375 C 4.0625 -5.492188 4.007812 -5.609375 3.90625 -5.703125 C 3.8125 -5.804688 3.695312 -5.863281 3.5625 -5.875 L 1.78125 -5.875 L 1.78125 -3.15625 L 3.265625 -3.15625 C 3.378906 -3.164062 3.472656 -3.210938 3.546875 -3.296875 C 3.628906 -3.378906 3.671875 -3.476562 3.671875 -3.59375 L 3.671875 -3.71875 L 3.765625 -3.71875 L 3.765625 -2.328125 L 3.671875 -2.328125 L 3.671875 -2.46875 C 3.671875 -2.582031 3.628906 -2.679688 3.546875 -2.765625 C 3.472656 -2.847656 3.378906 -2.890625 3.265625 -2.890625 L 1.78125 -2.890625 L 1.78125 -0.265625 L 3.03125 -0.265625 C 3.457031 -0.265625 3.785156 -0.363281 4.015625 -0.5625 C 4.242188 -0.757812 4.4375 -1.046875 4.59375 -1.421875 L 4.6875 -1.421875 L 4.171875 0 L 0.53125 0 L 0.53125 -0.09375 Z M 0.640625 -0.09375 "/></g></g></g><g fill="#000000" fill-opacity="1"><g transform="translate(29.365609, 8.998829)"><g><path d="M 0.640625 -0.09375 C 0.796875 -0.09375 0.925781 -0.144531 1.03125 -0.25 C 1.132812 -0.351562 1.191406 -0.484375 1.203125 -0.640625 L 1.203125 -5.5 C 1.191406 -5.65625 1.132812 -5.785156 1.03125 -5.890625 C 0.925781 -6.003906 0.796875 -6.0625 0.640625 -6.0625 L 0.53125 -6.0625 L 0.53125 -6.140625 L 2.453125 -6.140625 L 2.453125 -6.0625 L 2.328125 -6.0625 C 2.117188 -6.0625 1.960938 -5.96875 1.859375 -5.78125 C 1.804688 -5.695312 1.78125 -5.601562 1.78125 -5.5 L 1.78125 -0.265625 L 3.03125 -0.265625 C 3.457031 -0.265625 3.785156 -0.363281 4.015625 -0.5625 C 4.242188 -0.757812 4.4375 -1.046875 4.59375 -1.421875 L 4.6875 -1.421875 L 4.171875 0 L 0.53125 0 L 0.53125 -0.09375 Z M 0.640625 -0.09375 "/></g></g></g><g fill="#000000" fill-opacity="1"><g transform="translate(35.799755, 8.998829)"><g><path d="M 2.328125 -5.875 L 1.78125 -5.875 L 1.78125 -0.640625 C 1.78125 -0.484375 1.832031 -0.351562 1.9375 -0.25 C 2.039062 -0.144531 2.171875 -0.09375 2.328125 -0.09375 L 2.4375 -0.09375 L 2.453125 0 L 0.53125 0 L 0.53125 -0.09375 L 0.640625 -0.09375 C 0.796875 -0.09375 0.925781 -0.144531 1.03125 -0.25 C 1.132812 -0.351562 1.191406 -0.476562 1.203125 -0.625 L 1.203125 -5.5 C 1.191406 -5.65625 1.132812 -5.785156 1.03125 -5.890625 C 0.925781 -6.003906 0.796875 -6.0625 0.640625 -6.0625 L 0.53125 -6.0625 L 0.53125 -6.140625 L 2.890625 -6.140625 C 3.429688 -6.140625 3.851562 -5.992188 4.15625 -5.703125 C 4.457031 -5.410156 4.609375 -5.023438 4.609375 -4.546875 C 4.609375 -4.078125 4.460938 -3.671875 4.171875 -3.328125 C 3.878906 -2.984375 3.53125 -2.8125 3.125 -2.8125 C 3.207031 -2.769531 3.304688 -2.6875 3.421875 -2.5625 C 3.546875 -2.445312 3.65625 -2.328125 3.75 -2.203125 C 4.25 -1.484375 4.578125 -1.039062 4.734375 -0.875 C 4.890625 -0.707031 5 -0.59375 5.0625 -0.53125 C 5.125 -0.46875 5.191406 -0.40625 5.265625 -0.34375 C 5.347656 -0.289062 5.425781 -0.242188 5.5 -0.203125 C 5.664062 -0.128906 5.847656 -0.09375 6.046875 -0.09375 L 6.046875 0 L 5.5625 0 C 5.3125 0 5.078125 -0.0390625 4.859375 -0.125 C 4.640625 -0.21875 4.472656 -0.3125 4.359375 -0.40625 C 4.253906 -0.507812 4.160156 -0.601562 4.078125 -0.6875 C 4.003906 -0.78125 3.785156 -1.082031 3.421875 -1.59375 C 3.066406 -2.113281 2.859375 -2.410156 2.796875 -2.484375 C 2.742188 -2.554688 2.6875 -2.628906 2.625 -2.703125 C 2.4375 -2.898438 2.25 -3 2.0625 -3 L 2.0625 -3.09375 C 2.113281 -3.082031 2.175781 -3.078125 2.25 -3.078125 C 2.320312 -3.078125 2.414062 -3.082031 2.53125 -3.09375 C 3.257812 -3.113281 3.71875 -3.414062 3.90625 -4 C 3.9375 -4.125 3.953125 -4.234375 3.953125 -4.328125 C 3.953125 -4.429688 3.953125 -4.5 3.953125 -4.53125 C 3.941406 -4.925781 3.835938 -5.242188 3.640625 -5.484375 C 3.453125 -5.722656 3.191406 -5.847656 2.859375 -5.859375 C 2.722656 -5.867188 2.546875 -5.875 2.328125 -5.875 Z M 2.328125 -5.875 "/></g></g></g><g fill="#000000" fill-opacity="1"><g transform="translate(42.760569, 8.998829)"><g><path d="M 5.921875 -6.0625 L 5.796875 -6.0625 C 5.617188 -6.0625 5.453125 -6.007812 5.296875 -5.90625 C 5.140625 -5.8125 5.007812 -5.691406 4.90625 -5.546875 L 3.171875 -2.734375 L 3.171875 -0.640625 C 3.171875 -0.484375 3.222656 -0.351562 3.328125 -0.25 C 3.441406 -0.144531 3.578125 -0.09375 3.734375 -0.09375 L 3.84375 -0.09375 L 3.84375 0 L 1.9375 0 L 1.9375 -0.09375 L 2.046875 -0.09375 C 2.191406 -0.09375 2.316406 -0.144531 2.421875 -0.25 C 2.535156 -0.351562 2.597656 -0.476562 2.609375 -0.625 L 2.609375 -2.75 L 0.921875 -5.546875 C 0.835938 -5.691406 0.710938 -5.8125 0.546875 -5.90625 C 0.390625 -6.007812 0.222656 -6.0625 0.046875 -6.0625 L -0.078125 -6.0625 L -0.078125 -6.140625 L 2.09375 -6.140625 L 2.09375 -6.0625 L 1.96875 -6.0625 C 1.84375 -6.0625 1.742188 -6.003906 1.671875 -5.890625 C 1.640625 -5.816406 1.625 -5.75 1.625 -5.6875 C 1.625 -5.632812 1.640625 -5.578125 1.671875 -5.515625 L 2.984375 -3.0625 L 4.390625 -5.515625 C 4.421875 -5.578125 4.4375 -5.632812 4.4375 -5.6875 C 4.4375 -5.75 4.414062 -5.816406 4.375 -5.890625 C 4.300781 -6.003906 4.203125 -6.0625 4.078125 -6.0625 L 3.96875 -6.0625 L 3.96875 -6.140625 L 5.921875 -6.140625 Z M 5.921875 -6.0625 "/></g></g></g><g fill="#000000" fill-opacity="1"><g transform="translate(54.022495, 8.998829)"><g><path d="M 0.53125 -0.359375 C 0.519531 -0.441406 0.515625 -0.597656 0.515625 -0.828125 C 0.515625 -1.066406 0.554688 -1.316406 0.640625 -1.578125 L 0.71875 -1.578125 C 0.71875 -1.515625 0.71875 -1.453125 0.71875 -1.390625 C 0.71875 -1.035156 0.820312 -0.738281 1.03125 -0.5 C 1.25 -0.257812 1.535156 -0.140625 1.890625 -0.140625 C 2.265625 -0.140625 2.566406 -0.25 2.796875 -0.46875 C 3.035156 -0.695312 3.15625 -0.976562 3.15625 -1.3125 C 3.15625 -1.644531 3.039062 -1.921875 2.8125 -2.140625 L 1.125 -3.703125 C 0.8125 -3.992188 0.65625 -4.347656 0.65625 -4.765625 C 0.65625 -5.179688 0.796875 -5.535156 1.078125 -5.828125 C 1.359375 -6.117188 1.734375 -6.265625 2.203125 -6.265625 C 2.421875 -6.265625 2.671875 -6.238281 2.953125 -6.1875 L 3.296875 -6.1875 L 3.296875 -5.109375 L 3.21875 -5.109375 C 3.21875 -5.378906 3.125 -5.59375 2.9375 -5.75 C 2.75 -5.914062 2.503906 -6 2.203125 -6 C 1.898438 -6 1.648438 -5.898438 1.453125 -5.703125 C 1.253906 -5.503906 1.15625 -5.253906 1.15625 -4.953125 C 1.15625 -4.660156 1.269531 -4.40625 1.5 -4.1875 L 3.234375 -2.59375 C 3.523438 -2.320312 3.671875 -1.953125 3.671875 -1.484375 C 3.671875 -1.015625 3.519531 -0.628906 3.21875 -0.328125 C 2.925781 -0.0234375 2.53125 0.125 2.03125 0.125 C 1.769531 0.125 1.492188 0.0820312 1.203125 0 C 0.910156 -0.0703125 0.6875 -0.191406 0.53125 -0.359375 Z M 0.53125 -0.359375 "/></g></g></g><g fill="#000000" fill-opacity="1"><g transform="translate(59.824632, 8.998829)"><g><path d="M 5.171875 -5.359375 C 5.171875 -5.503906 5.117188 -5.628906 5.015625 -5.734375 C 4.921875 -5.835938 4.804688 -5.890625 4.671875 -5.890625 L 3 -5.890625 L 3 -0.625 C 3.007812 -0.476562 3.066406 -0.351562 3.171875 -0.25 C 3.285156 -0.144531 3.414062 -0.09375 3.5625 -0.09375 L 3.671875 -0.09375 L 3.671875 0 L 1.75 0 L 1.75 -0.09375 L 1.875 -0.09375 C 2.019531 -0.09375 2.144531 -0.144531 2.25 -0.25 C 2.363281 -0.351562 2.425781 -0.476562 2.4375 -0.625 L 2.4375 -5.890625 L 0.765625 -5.890625 C 0.617188 -5.890625 0.5 -5.835938 0.40625 -5.734375 C 0.3125 -5.628906 0.265625 -5.503906 0.265625 -5.359375 L 0.265625 -5.21875 L 0.171875 -5.203125 L 0.171875 -6.3125 C 0.265625 -6.28125 0.414062 -6.242188 0.625 -6.203125 C 0.84375 -6.171875 1.046875 -6.15625 1.234375 -6.15625 L 4.203125 -6.15625 C 4.484375 -6.15625 4.71875 -6.175781 4.90625 -6.21875 C 5.101562 -6.257812 5.222656 -6.289062 5.265625 -6.3125 L 5.265625 -5.203125 L 5.171875 -5.21875 Z M 5.171875 -5.359375 "/></g></g></g><g fill="#000000" fill-opacity="1"><g transform="translate(66.662546, 8.998829)"><g><path d="M 1.484375 -5.375 C 2.066406 -5.96875 2.828125 -6.265625 3.765625 -6.265625 C 4.703125 -6.265625 5.460938 -5.96875 6.046875 -5.375 C 6.628906 -4.789062 6.921875 -4.019531 6.921875 -3.0625 C 6.921875 -2.113281 6.628906 -1.34375 6.046875 -0.75 C 5.460938 -0.164062 4.703125 0.125 3.765625 0.125 C 2.828125 0.125 2.066406 -0.164062 1.484375 -0.75 C 0.898438 -1.34375 0.609375 -2.113281 0.609375 -3.0625 C 0.609375 -4.019531 0.898438 -4.789062 1.484375 -5.375 Z M 1.96875 -0.9375 C 2.425781 -0.40625 3.023438 -0.140625 3.765625 -0.140625 C 4.515625 -0.140625 5.113281 -0.40625 5.5625 -0.9375 C 6.019531 -1.476562 6.25 -2.191406 6.25 -3.078125 C 6.25 -3.648438 6.144531 -4.160156 5.9375 -4.609375 C 5.738281 -5.054688 5.445312 -5.398438 5.0625 -5.640625 C 4.6875 -5.878906 4.253906 -6 3.765625 -6 C 3.023438 -6 2.425781 -5.726562 1.96875 -5.1875 C 1.519531 -4.65625 1.296875 -3.945312 1.296875 -3.0625 C 1.296875 -2.1875 1.519531 -1.476562 1.96875 -0.9375 Z M 1.96875 -0.9375 "/></g></g></g><g fill="#000000" fill-opacity="1"><g transform="translate(75.47548, 8.998829)"><g><path d="M 2.328125 -5.875 L 1.78125 -5.875 L 1.78125 -0.640625 C 1.78125 -0.484375 1.832031 -0.351562 1.9375 -0.25 C 2.039062 -0.144531 2.171875 -0.09375 2.328125 -0.09375 L 2.4375 -0.09375 L 2.453125 0 L 0.53125 0 L 0.53125 -0.09375 L 0.640625 -0.09375 C 0.796875 -0.09375 0.925781 -0.144531 1.03125 -0.25 C 1.132812 -0.351562 1.191406 -0.476562 1.203125 -0.625 L 1.203125 -5.5 C 1.191406 -5.65625 1.132812 -5.785156 1.03125 -5.890625 C 0.925781 -6.003906 0.796875 -6.0625 0.640625 -6.0625 L 0.53125 -6.0625 L 0.53125 -6.140625 L 2.890625 -6.140625 C 3.429688 -6.140625 3.851562 -5.992188 4.15625 -5.703125 C 4.457031 -5.410156 4.609375 -5.023438 4.609375 -4.546875 C 4.609375 -4.078125 4.460938 -3.671875 4.171875 -3.328125 C 3.878906 -2.984375 3.53125 -2.8125 3.125 -2.8125 C 3.207031 -2.769531 3.304688 -2.6875 3.421875 -2.5625 C 3.546875 -2.445312 3.65625 -2.328125 3.75 -2.203125 C 4.25 -1.484375 4.578125 -1.039062 4.734375 -0.875 C 4.890625 -0.707031 5 -0.59375 5.0625 -0.53125 C 5.125 -0.46875 5.191406 -0.40625 5.265625 -0.34375 C 5.347656 -0.289062 5.425781 -0.242188 5.5 -0.203125 C 5.664062 -0.128906 5.847656 -0.09375 6.046875 -0.09375 L 6.046875 0 L 5.5625 0 C 5.3125 0 5.078125 -0.0390625 4.859375 -0.125 C 4.640625 -0.21875 4.472656 -0.3125 4.359375 -0.40625 C 4.253906 -0.507812 4.160156 -0.601562 4.078125 -0.6875 C 4.003906 -0.78125 3.785156 -1.082031 3.421875 -1.59375 C 3.066406 -2.113281 2.859375 -2.410156 2.796875 -2.484375 C 2.742188 -2.554688 2.6875 -2.628906 2.625 -2.703125 C 2.4375 -2.898438 2.25 -3 2.0625 -3 L 2.0625 -3.09375 C 2.113281 -3.082031 2.175781 -3.078125 2.25 -3.078125 C 2.320312 -3.078125 2.414062 -3.082031 2.53125 -3.09375 C 3.257812 -3.113281 3.71875 -3.414062 3.90625 -4 C 3.9375 -4.125 3.953125 -4.234375 3.953125 -4.328125 C 3.953125 -4.429688 3.953125 -4.5 3.953125 -4.53125 C 3.941406 -4.925781 3.835938 -5.242188 3.640625 -5.484375 C 3.453125 -5.722656 3.191406 -5.847656 2.859375 -5.859375 C 2.722656 -5.867188 2.546875 -5.875 2.328125 -5.875 Z M 2.328125 -5.875 "/></g></g></g><g fill="#000000" fill-opacity="1"><g transform="translate(82.787401, 8.998829)"><g><path d="M 0.640625 -0.09375 C 0.796875 -0.09375 0.925781 -0.144531 1.03125 -0.25 C 1.132812 -0.351562 1.191406 -0.484375 1.203125 -0.640625 L 1.203125 -5.5625 C 1.179688 -5.695312 1.117188 -5.8125 1.015625 -5.90625 C 0.910156 -6.007812 0.785156 -6.0625 0.640625 -6.0625 L 0.53125 -6.0625 L 0.53125 -6.140625 L 3.09375 -6.140625 C 3.28125 -6.140625 3.476562 -6.15625 3.6875 -6.1875 C 3.90625 -6.226562 4.054688 -6.269531 4.140625 -6.3125 L 4.140625 -5.203125 L 4.0625 -5.203125 L 4.0625 -5.359375 C 4.0625 -5.492188 4.007812 -5.609375 3.90625 -5.703125 C 3.8125 -5.804688 3.695312 -5.863281 3.5625 -5.875 L 1.78125 -5.875 L 1.78125 -3.15625 L 3.265625 -3.15625 C 3.378906 -3.164062 3.472656 -3.210938 3.546875 -3.296875 C 3.628906 -3.378906 3.671875 -3.476562 3.671875 -3.59375 L 3.671875 -3.71875 L 3.765625 -3.71875 L 3.765625 -2.328125 L 3.671875 -2.328125 L 3.671875 -2.46875 C 3.671875 -2.582031 3.628906 -2.679688 3.546875 -2.765625 C 3.472656 -2.847656 3.378906 -2.890625 3.265625 -2.890625 L 1.78125 -2.890625 L 1.78125 -0.265625 L 3.03125 -0.265625 C 3.457031 -0.265625 3.785156 -0.363281 4.015625 -0.5625 C 4.242188 -0.757812 4.4375 -1.046875 4.59375 -1.421875 L 4.6875 -1.421875 L 4.171875 0 L 0.53125 0 L 0.53125 -0.09375 Z M 0.640625 -0.09375 "/></g></g></g></g></g></svg>